<?xml version="1.0" standalone="no"?>
<!DOCTYPE svg PUBLIC "-//W3C//DTD SVG 20010904//EN"
 "http://www.w3.org/TR/2001/REC-SVG-20010904/DTD/svg10.dtd">
<svg version="1.0" xmlns="http://www.w3.org/2000/svg"
 width="316.000000pt" height="316.000000pt" viewBox="0 0 316.000000 316.000000"
 preserveAspectRatio="xMidYMid meet">
<metadata>
Created by potrace 1.11, written by Peter Selinger 2001-2013
</metadata>
<g transform="translate(0.000000,316.000000) scale(0.100000,-0.100000)"
fill="#000000" stroke="none">
<path d="M1710 2360 c-9 -5 -11 -20 -7 -47 6 -36 5 -40 -23 -50 -43 -16 -37
-39 20 -74 62 -38 66 -63 13 -85 -35 -15 -62 -15 -140 1 -47 10 -96 -40 -127
-129 -14 -38 -22 -75 -19 -82 7 -18 34 -18 59 1 29 22 36 18 21 -12 -34 -67
15 -127 144 -174 48 -18 60 -27 86 -72 17 -29 34 -62 38 -74 3 -12 18 -31 32
-42 22 -18 28 -19 52 -7 31 17 75 63 125 133 45 63 83 92 131 100 l35 6 0
-147 c0 -144 0 -146 -22 -147 -13 -1 -29 -1 -36 0 -10 2 -12 -64 -10 -331 l3
-333 250 0 250 0 2 72 c1 85 26 75 -184 75 l-133 0 0 65 c0 50 5 71 20 90 19
24 20 41 20 297 -1 149 -1 280 0 291 0 16 5 14 35 -16 l34 -36 1 -259 c1 -269
3 -279 46 -302 34 -18 89 -1 100 31 12 33 11 28 13 162 l1 124 30 16 c16 8 31
15 35 15 3 0 5 -62 5 -139 0 -76 5 -152 11 -169 14 -40 54 -57 95 -41 16 6 42
11 58 10 43 -2 75 24 102 85 13 30 27 54 31 54 4 0 17 -10 29 -21 21 -19 26
-20 54 -9 35 15 77 61 86 95 4 17 -4 42 -26 80 -18 31 -29 59 -26 62 3 4 23 1
45 -5 52 -16 78 -15 85 4 13 33 -29 72 -96 88 -42 10 -34 24 27 51 30 14 55
29 55 34 0 6 -10 22 -23 37 -18 21 -35 28 -76 32 -29 2 -55 10 -58 17 -6 18
24 75 53 100 32 27 30 39 -12 90 -19 24 -40 61 -46 82 -20 73 -41 80 -89 31
l-32 -33 6 38 c8 50 21 65 81 93 l50 23 -28 11 c-15 5 -33 10 -41 10 -27 0
-75 57 -75 89 0 88 -108 188 -147 136 -7 -11 -13 -27 -13 -37 0 -33 -30 -78
-56 -84 -16 -4 -39 -1 -58 8 -77 37 -121 31 -167 -26 -16 -20 -16 -20 -23 2
-16 48 -65 44 -122 -9 -21 -20 -21 -20 -37 5 -16 24 -16 26 15 56 24 24 28 34
18 40 -16 10 -35 7 -164 -25 -92 -23 -123 -25 -111 -5 5 9 -182 77 -231 84
-17 2 -37 0 -44 -4z"/>
<path d="M3 1376 l2 -81 222 -1 c148 0 223 3 226 10 2 6 3 43 2 81 l0 70 -227
1 -226 1 1 -81z"/>
<path d="M762 1447 c-9 -10 -259 -572 -283 -634 -8 -21 -7 -22 87 -20 l95 2
27 64 27 64 103 -1 c201 -1 175 7 203 -64 l25 -63 97 -3 c53 -1 97 -1 97 1 0
4 -103 242 -135 312 -7 17 -36 82 -65 145 -28 63 -60 136 -72 161 l-20 47 -88
0 c-58 1 -92 -3 -98 -11z m136 -282 l40 -100 -80 -3 c-44 -2 -82 -1 -84 1 -2
2 15 49 37 106 23 56 43 100 44 99 2 -2 21 -48 43 -103z"/>
<path d="M1297 1452 c-2 -4 -3 -153 -3 -332 l1 -325 181 -2 c245 -2 317 14
405 94 148 134 129 402 -37 507 -84 53 -114 59 -336 62 -115 1 -209 -1 -211
-4z m399 -165 c126 -66 127 -258 1 -323 -28 -15 -168 -28 -197 -19 -13 4 -15
32 -14 182 1 98 2 180 3 181 3 10 182 -8 207 -21z"/>
<path d="M148 1205 c-186 -60 -197 -319 -18 -398 65 -29 174 -27 237 4 26 13
49 29 50 35 2 6 -12 28 -31 48 l-34 38 -33 -17 c-45 -24 -126 -16 -151 15 -10
12 -18 25 -18 29 0 4 67 7 149 6 143 -1 150 0 155 20 7 30 -8 98 -30 136 -46
78 -174 116 -276 84z m139 -110 c11 -8 23 -23 25 -33 5 -17 -2 -19 -78 -19
-91 0 -100 6 -64 45 25 26 84 30 117 7z"/>
</g>
</svg>
